<svg xmlns="http://www.w3.org/2000/svg" xmlns:xlink="http://www.w3.org/1999/xlink" width="101.766" height="56.452" viewBox="0 0 101.766 56.452">
  <defs>
    <linearGradient id="linear-gradient" y1="0.5" x2="1" y2="0.5" gradientUnits="objectBoundingBox">
      <stop offset="0" stop-color="#ff1e00"/>
      <stop offset="0.098" stop-color="#ff3101"/>
      <stop offset="0.247" stop-color="#ff4802"/>
      <stop offset="0.408" stop-color="#ff5804"/>
      <stop offset="0.589" stop-color="#ff6104"/>
      <stop offset="0.828" stop-color="#ff6505"/>
    </linearGradient>
  </defs>
  <g id="Grupo_1919" data-name="Grupo 1919" transform="translate(-2691.75 37.775)">
    <g id="Grupo_1918" data-name="Grupo 1918" transform="translate(2713.712 -15.305)">
      <path id="Caminho_2465" data-name="Caminho 2465" d="M2923.135,192.817a5.138,5.138,0,0,0-1.5-.9,4.6,4.6,0,0,0-1.656-.3,3.655,3.655,0,0,0-2.735,1.078,4.2,4.2,0,0,0-.028,5.533,3.42,3.42,0,0,0,2.588,1.078,4.712,4.712,0,0,0,1.733-.322,5.492,5.492,0,0,0,1.579-.973v1.884a4.917,4.917,0,0,1-1.464.721,6.318,6.318,0,0,1-3.89-.147,5.119,5.119,0,0,1-2.906-2.868,5.793,5.793,0,0,1,0-4.244,5.254,5.254,0,0,1,2.917-2.885,5.779,5.779,0,0,1,2.136-.389,5.612,5.612,0,0,1,1.723.263,6.037,6.037,0,0,1,1.59.795Z" transform="translate(-2914.458 -190.079)" fill="#fff"/>
      <path id="Caminho_2466" data-name="Caminho 2466" d="M3024.417,230.422a3.465,3.465,0,0,1,.277-1.376,3.524,3.524,0,0,1,.795-1.152,3.582,3.582,0,0,1,1.177-.763,3.827,3.827,0,0,1,2.8,0,3.582,3.582,0,0,1,1.187.784,3.519,3.519,0,0,1,.8,1.156,3.423,3.423,0,0,1,.273,1.352,3.538,3.538,0,0,1-.27,1.38,3.375,3.375,0,0,1-.788,1.142,3.8,3.8,0,0,1-1.211.795,3.737,3.737,0,0,1-2.787,0,3.688,3.688,0,0,1-1.982-1.943A3.483,3.483,0,0,1,3024.417,230.422Zm5.707.014a2.215,2.215,0,0,0-.6-1.565,1.972,1.972,0,0,0-2.91,0,2.345,2.345,0,0,0,0,3.13,1.968,1.968,0,0,0,2.906,0A2.207,2.207,0,0,0,3030.124,230.436Z" transform="translate(-3013.573 -223.236)" fill="#fff"/>
      <path id="Caminho_2467" data-name="Caminho 2467" d="M3122.161,233.734V227.1h1.428v1.085a2.863,2.863,0,0,1,1.071-1,3.263,3.263,0,0,1,1.5-.315,3.073,3.073,0,0,1,1.264.235,1.832,1.832,0,0,1,.815.7,1.9,1.9,0,0,1,.252.637,7.122,7.122,0,0,1,.077,1.275v4.027h-1.534v-3.41a3.212,3.212,0,0,0-.318-1.74,1.321,1.321,0,0,0-1.131-.431,2.206,2.206,0,0,0-.949.2,1.569,1.569,0,0,0-.654.553,1.506,1.506,0,0,0-.235.613,7.584,7.584,0,0,0-.066,1.194v3.025Z" transform="translate(-3101.679 -223.236)" fill="#fff"/>
      <path id="Caminho_2468" data-name="Caminho 2468" d="M3214.934,233.734V227.1h1.428v1.085a2.864,2.864,0,0,1,1.072-1,3.262,3.262,0,0,1,1.5-.315,3.07,3.07,0,0,1,1.264.235,1.836,1.836,0,0,1,.816.7,1.907,1.907,0,0,1,.252.637,7.17,7.17,0,0,1,.077,1.275v4.027h-1.534v-3.41a3.211,3.211,0,0,0-.319-1.74,1.32,1.32,0,0,0-1.131-.431,2.2,2.2,0,0,0-.949.2,1.57,1.57,0,0,0-.655.553,1.506,1.506,0,0,0-.235.613,7.645,7.645,0,0,0-.066,1.194v3.025Z" transform="translate(-3185.303 -223.236)" fill="#fff"/>
      <path id="Caminho_2469" data-name="Caminho 2469" d="M3309.621,230.639h-5.309a2.226,2.226,0,0,0,.554,1.453,1.743,1.743,0,0,0,1.323.522,2.262,2.262,0,0,0,1.226-.308,2.541,2.541,0,0,0,.854-.994l1.282.714a3.879,3.879,0,0,1-1.387,1.492,3.734,3.734,0,0,1-1.94.49,3.379,3.379,0,0,1-2.542-.973,3.569,3.569,0,0,1-.945-2.6,3.531,3.531,0,0,1,.977-2.567,3.747,3.747,0,0,1,5.011-.088,3.522,3.522,0,0,1,.9,2.57Zm-1.576-1.022a1.608,1.608,0,0,0-.546-1.089,1.906,1.906,0,0,0-1.247-.375,1.873,1.873,0,0,0-1.205.364,1.957,1.957,0,0,0-.637,1.1Z" transform="translate(-3264.447 -223.236)" fill="#fff"/>
      <path id="Caminho_2470" data-name="Caminho 2470" d="M3396.343,228.986a2.388,2.388,0,0,0-.816-.588,2.49,2.49,0,0,0-1-.2,1.94,1.94,0,0,0-1.492.6,2.593,2.593,0,0,0,0,3.225,2.048,2.048,0,0,0,1.558.592,2.274,2.274,0,0,0,.988-.207,2.137,2.137,0,0,0,.763-.627v1.751a3.556,3.556,0,0,1-.9.357,4.225,4.225,0,0,1-1.019.119,3.423,3.423,0,0,1-2.545-.994,3.506,3.506,0,0,1-.984-2.577,3.434,3.434,0,0,1,1.019-2.588,3.675,3.675,0,0,1,2.665-.984,4.186,4.186,0,0,1,.952.1,3.133,3.133,0,0,1,.813.312Z" transform="translate(-3343.911 -223.236)" fill="#fff"/>
      <path id="Caminho_2471" data-name="Caminho 2471" d="M3462.176,212.867v-5.308h-1.163v-1.331h1.163v-2.514h1.52v2.514h1.162v1.331H3463.7v5.308Z" transform="translate(-3407.115 -202.369)" fill="#fff"/>
      <path id="Caminho_2472" data-name="Caminho 2472" d="M3519.2,191.45a.9.9,0,0,1,.284-.665.969.969,0,0,1,1.352-.01.918.918,0,0,1,.269.676.934.934,0,0,1-.273.683.908.908,0,0,1-.672.277.969.969,0,0,1-.959-.959Zm.2,9.51v-6.639h1.52v6.639Z" transform="translate(-3459.566 -190.463)" fill="#fff"/>
      <path id="Caminho_2473" data-name="Caminho 2473" d="M3560.989,230.422a3.465,3.465,0,0,1,.277-1.376,3.528,3.528,0,0,1,.795-1.152,3.58,3.58,0,0,1,1.176-.763,3.827,3.827,0,0,1,2.8,0,3.578,3.578,0,0,1,1.187.784,3.523,3.523,0,0,1,.8,1.156,3.428,3.428,0,0,1,.273,1.352,3.538,3.538,0,0,1-.27,1.38,3.368,3.368,0,0,1-.788,1.142,3.8,3.8,0,0,1-1.211.795,3.737,3.737,0,0,1-2.788,0,3.692,3.692,0,0,1-1.982-1.943A3.488,3.488,0,0,1,3560.989,230.422Zm5.708.014a2.216,2.216,0,0,0-.6-1.565,1.972,1.972,0,0,0-2.91,0,2.345,2.345,0,0,0,0,3.13,1.968,1.968,0,0,0,2.906,0A2.209,2.209,0,0,0,3566.7,230.436Z" transform="translate(-3497.232 -223.236)" fill="#fff"/>
      <path id="Caminho_2474" data-name="Caminho 2474" d="M3658.733,233.734V227.1h1.429v1.085a2.863,2.863,0,0,1,1.071-1,3.262,3.262,0,0,1,1.5-.315,3.07,3.07,0,0,1,1.264.235,1.831,1.831,0,0,1,.816.7,1.907,1.907,0,0,1,.252.637,7.122,7.122,0,0,1,.077,1.275v4.027h-1.533v-3.41a3.211,3.211,0,0,0-.319-1.74,1.322,1.322,0,0,0-1.131-.431,2.2,2.2,0,0,0-.949.2,1.569,1.569,0,0,0-.654.553,1.506,1.506,0,0,0-.235.613,7.57,7.57,0,0,0-.067,1.194v3.025Z" transform="translate(-3585.336 -223.236)" fill="#fff"/>
    </g>
    <path id="Caminho_2475" data-name="Caminho 2475" d="M2724.984,7.594c-5.435,1.639-.854,5.172-3.674,8.951a5.321,5.321,0,0,1-9.581-3.112c0-1.152.679-2.5.872-3.81a2.322,2.322,0,0,0-4.56-.86,5.9,5.9,0,0,0-.036,1.961,3.307,3.307,0,1,1-6.54.641c-.114-5.024,7.223-1.476,5.708-8.489-.386-3.507,1.989-5.314,4.225-5.314a4.229,4.229,0,0,1,4.032,5.512,4.2,4.2,0,0,0,.05,3.333,2.558,2.558,0,0,0,4.025.587c1.173-1.178.658-2.9.773-3.988.563-5.335,8.516-4.97,8.516.378A4.23,4.23,0,0,1,2724.984,7.594ZM2740.774.417a5.311,5.311,0,0,0-8.414,5.087c.563,3.538-.687,4.715-3.344,5.225-4.212.567-3.8,6.839.462,6.839a3.434,3.434,0,0,0,3.434-3.515c.437-5.84,4.2-2.843,7.5-4.921A5.268,5.268,0,0,0,2740.774.417Zm-39.26-4.623a21.376,21.376,0,0,1-2.775-1.736c-2.343-2.087.777-5.677,3.176-3.654a7.593,7.593,0,0,1,1.019,1.07,4.22,4.22,0,0,0,3.344,1.587,4.221,4.221,0,0,0,4.189-4.229c0-4.317-4.243-3.5-5.088-6.164a2.717,2.717,0,0,1,4-3.1,6.629,6.629,0,0,1,1.383,1.185h0a4.236,4.236,0,0,0,7.342-2.864,4.234,4.234,0,0,0-6.843-3.325c.029-.416-2.414,3.138-5.623-.277-2.466-4.554-9.951-3.035-9.951,2.56,0,4.528,3.616,4.744,5.635,6.179a2.2,2.2,0,0,1-2.479,3.644,6.306,6.306,0,0,1-1.135-1h0c-3.326-3.6-8.924,2.025-4.056,5.631l-.12-.068c1.736,1.285,2.5,2.881.513,5.8-3.166,4.511,1.793,10.006,6.3,8A5.253,5.253,0,0,0,2701.514-4.206Zm33.313-16.127A4.331,4.331,0,0,0,2739.159-16a4.332,4.332,0,0,0,4.332-4.331,4.332,4.332,0,0,0-4.332-4.331A4.331,4.331,0,0,0,2734.828-20.334Zm-25.493-9.37a3.27,3.27,0,0,0,2.111-.725c5.9-4.6,5.89,5.828,12.66,2.734,2.455-1.121,3.4-2.52,4.817-2.249a2.141,2.141,0,0,1,1.368,3.223c-.579.975-1.722,1.6-3.644,1.882h0c-5.155.74-4.622,8.416.606,8.416a4.23,4.23,0,0,0,4.23-4.23c0-1.687-1.753-5.344,3.281-6.433a3.437,3.437,0,0,0-.687-6.8c-2.271,0-3.964,2.632-6.325.216l-.5-.572h0c-.445-.629-.73-1.028-.673-.936a5.313,5.313,0,0,0-8.426-.938c.025-.573-2.51,4.276-6.441.5a3.429,3.429,0,0,0-2.227-.955,3.42,3.42,0,0,0-3.578,3.163A3.436,3.436,0,0,0,2709.335-29.7Z" fill="url(#linear-gradient)"/>
  </g>
</svg>
